<svg width="40" height="40" viewBox="0 0 40 40" fill="none" xmlns="http://www.w3.org/2000/svg">
<g clip-path="url(#clip0_1325_2)">
<path d="M1.61306 1.61501C2.7846 0.443483 4.68414 0.443433 5.85572 1.61501L19.9978 15.7572L34.14 1.61501C35.3116 0.443443 37.211 0.443423 38.3826 1.61501C39.5542 2.78655 39.5542 4.68605 38.3826 5.85763L24.2405 19.9998L38.3826 34.1419C39.5542 35.3135 39.5542 37.213 38.3826 38.3846C37.211 39.5562 35.3115 39.5561 34.14 38.3846L19.9978 24.2424L5.85571 38.3846C4.68414 39.5561 2.78461 39.5561 1.61307 38.3846C0.441469 37.213 0.441489 35.3135 1.61307 34.1419L15.7552 19.9998L1.61307 5.85763C0.441499 4.68606 0.441459 2.78662 1.61306 1.61501Z" fill="black"/>
</g>
<defs>
<clipPath id="clip0_1325_2">
<rect width="40" height="40" fill="white"/>
</clipPath>
</defs>
</svg>
