<svg width="79" height="23" viewBox="0 0 79 23" fill="none" xmlns="http://www.w3.org/2000/svg">
<path d="M0.925375 23C0.712042 23 0.520042 22.9253 0.349375 22.776C0.178708 22.6267 0.0933751 22.424 0.0933751 22.168V1.432C0.0933751 1.19733 0.178708 1.00533 0.349375 0.855999C0.520042 0.685332 0.712042 0.599998 0.925375 0.599998H6.14138C6.37604 0.599998 6.56804 0.685332 6.71738 0.855999C6.88804 1.00533 6.97338 1.19733 6.97338 1.432V8.664H8.22138L12.5094 1.272C12.616 1.10133 12.7654 0.951999 12.9574 0.823999C13.1707 0.674665 13.4374 0.599998 13.7574 0.599998H19.6134C19.8054 0.599998 19.9654 0.674665 20.0934 0.823999C20.2214 0.951999 20.2854 1.112 20.2854 1.304C20.2854 1.41067 20.2534 1.528 20.1894 1.656L14.3334 11.352L20.7654 21.944C20.808 22.008 20.8294 22.1253 20.8294 22.296C20.8294 22.488 20.7547 22.6587 20.6054 22.808C20.4774 22.936 20.3174 23 20.1254 23H14.1094C13.7254 23 13.4374 22.9147 13.2454 22.744C13.0747 22.552 12.9574 22.4133 12.8934 22.328L8.44538 14.744H6.97338V22.168C6.97338 22.4027 6.88804 22.6053 6.71738 22.776C6.56804 22.9253 6.37604 23 6.14138 23H0.925375ZM24.1754 23C23.962 23 23.77 22.9253 23.5994 22.776C23.4287 22.6053 23.3434 22.4027 23.3434 22.168V1.432C23.3434 1.19733 23.4287 1.00533 23.5994 0.855999C23.77 0.685332 23.962 0.599998 24.1754 0.599998H40.1434C40.378 0.599998 40.5807 0.685332 40.7514 0.855999C40.922 1.00533 41.0074 1.19733 41.0074 1.432V5.464C41.0074 5.69867 40.922 5.90133 40.7514 6.072C40.5807 6.22133 40.378 6.296 40.1434 6.296H30.2234V8.952H33.9034C36.5914 8.952 38.714 9.57067 40.2714 10.808C41.8287 12.0453 42.6074 13.7413 42.6074 15.896C42.6074 16.9413 42.4154 17.9013 42.0314 18.776C41.6474 19.6507 41.082 20.408 40.3354 21.048C39.61 21.6667 38.7034 22.1467 37.6154 22.488C36.5487 22.8293 35.3114 23 33.9034 23H24.1754ZM30.2234 18.168H33.3274C33.7967 18.168 34.1914 18.0613 34.5114 17.848C34.8314 17.6133 35.066 17.3253 35.2154 16.984C35.386 16.6427 35.4714 16.28 35.4714 15.896C35.4714 15.2987 35.2794 14.776 34.8954 14.328C34.5327 13.88 34.01 13.656 33.3274 13.656H30.2234V18.168ZM45.1046 16.12C44.87 16.12 44.6673 16.0453 44.4966 15.896C44.3473 15.7253 44.2726 15.5227 44.2726 15.288V11.512C44.2726 11.2773 44.3473 11.0853 44.4966 10.936C44.6673 10.7653 44.87 10.68 45.1046 10.68H55.3446C55.5793 10.68 55.7713 10.7653 55.9206 10.936C56.0913 11.0853 56.1766 11.2773 56.1766 11.512V15.288C56.1766 15.5227 56.0913 15.7253 55.9206 15.896C55.7713 16.0453 55.5793 16.12 55.3446 16.12H45.1046ZM63.0151 23C62.8231 23 62.6525 22.936 62.5031 22.808C62.3751 22.6587 62.3111 22.488 62.3111 22.296C62.3111 22.1893 62.3325 22.104 62.3751 22.04C62.4178 21.976 62.4498 21.9227 62.4711 21.88L66.8231 15.992C66.6098 16.0347 66.4071 16.0453 66.2151 16.024C65.3618 15.96 64.4765 15.7467 63.5591 15.384C62.6631 15.0213 61.8311 14.5307 61.0631 13.912C60.2951 13.272 59.6765 12.4933 59.2071 11.576C58.7378 10.6587 58.5031 9.61333 58.5031 8.44C58.5031 7.39467 58.7058 6.38133 59.1111 5.4C59.5165 4.41867 60.1245 3.544 60.9351 2.776C61.7458 2.008 62.7485 1.4 63.9431 0.952C65.1591 0.503999 66.5565 0.279999 68.1351 0.279999C69.7351 0.279999 71.1431 0.482665 72.3591 0.887999C73.5965 1.272 74.6311 1.82667 75.4631 2.552C76.2951 3.256 76.9245 4.088 77.3511 5.048C77.7991 6.008 78.0231 7.05333 78.0231 8.184C78.0231 9.18667 77.8311 10.136 77.4471 11.032C77.0631 11.9067 76.5831 12.7493 76.0071 13.56C75.4311 14.3707 74.8445 15.192 74.2471 16.024L69.5751 22.36C69.4898 22.4667 69.3511 22.6053 69.1591 22.776C68.9885 22.9253 68.7218 23 68.3591 23H63.0151ZM68.2311 11.128C68.7645 11.128 69.2231 11.0213 69.6071 10.808C70.0125 10.5947 70.3325 10.2853 70.5671 9.88C70.8018 9.47467 70.9191 8.99467 70.9191 8.44C70.9191 7.864 70.8018 7.37333 70.5671 6.968C70.3325 6.56267 70.0125 6.25333 69.6071 6.04C69.2018 5.82667 68.7431 5.72 68.2311 5.72C67.6978 5.72 67.2285 5.82667 66.8231 6.04C66.4178 6.25333 66.0978 6.56267 65.8631 6.968C65.6285 7.37333 65.5111 7.864 65.5111 8.44C65.5111 8.99467 65.6285 9.47467 65.8631 9.88C66.0978 10.2853 66.4178 10.5947 66.8231 10.808C67.2285 11.0213 67.6978 11.128 68.2311 11.128Z" fill="url(#paint0_linear_523_138)"/>
<defs>
<linearGradient id="paint0_linear_523_138" x1="-0.961539" y1="-1.5" x2="90.1392" y2="32.1728" gradientUnits="userSpaceOnUse">
<stop/>
<stop offset="1" stop-opacity="0.58"/>
</linearGradient>
</defs>
</svg>
